<?xml version="1.0" encoding="utf-8"?>
<!-- Generator: Adobe Illustrator 27.7.0, SVG Export Plug-In . SVG Version: 6.00 Build 0)  -->
<svg version="1.1" id="Layer_1" xmlns="http://www.w3.org/2000/svg" xmlns:xlink="http://www.w3.org/1999/xlink" x="0px" y="0px"
	 viewBox="0 0 357.6 120" style="enable-background:new 0 0 357.6 120;" xml:space="preserve">
<style type="text/css">
	.st0{fill:#FFFFFF;}
</style>
<g>
	<path class="st0" d="M42.3,29.1c-2.9-2.2-6.7-3.4-11.5-3.4c-3.8,0-7.2,0.7-10.2,2.1c-3,1.4-5.4,3.4-7.1,5.8
		c-1.7,2.5-2.6,5.2-2.6,8.3c0,3.1,0.8,6,2.4,8.6c1.6,2.6,4,5.8,7.2,9.4c3.1,3.5,5.4,6.6,6.9,9c1.5,2.5,2.3,5.1,2.3,7.9
		c0,3.2-1,5.8-3.1,7.9c-2,2.1-4.6,3.1-7.8,3.1c-2.5,0-4.6-0.8-6.1-2.3c-1.5-1.5-2.3-3.6-2.3-6.1c0-2.8,0.9-5,2.8-6.6
		c1.8-1.6,4.3-2.4,7.4-2.4c-0.4-1.8-1.2-3.3-2.7-4.3c-1.4-1-3.2-1.6-5.2-1.6c-2.2,0-4.3,0.6-6.2,1.9c-1.9,1.2-3.3,2.9-4.4,5.1
		c-1.1,2.1-1.6,4.5-1.6,7.1c0,3.1,0.8,5.8,2.3,8.1c1.5,2.3,3.7,4.2,6.6,5.5c2.8,1.3,6.1,2,9.8,2c4.4,0,8.5-0.9,12.1-2.7
		c3.6-1.8,6.5-4.2,8.6-7.3c2.1-3.1,3.1-6.5,3.1-10.3c0-2.8-0.5-5.4-1.6-7.8c-1-2.4-2.3-4.5-3.7-6.3c-1.4-1.8-3.4-4-5.7-6.6
		c-2.9-3.2-5-5.8-6.4-7.9c-1.4-2-2-4.2-2-6.6c0-2.6,0.8-4.7,2.3-6.4c1.5-1.7,3.4-2.5,5.8-2.5c2,0,3.5,0.6,4.6,1.7
		c1.1,1.1,1.7,2.6,1.7,4.5c0,1.5-0.3,2.9-1,4.3c-0.7,1.4-1.5,2.5-2.7,3.3c1.4,1.8,3.2,2.7,5.4,2.7c2,0,3.6-0.8,4.9-2.3
		c1.2-1.5,1.9-3.5,1.9-6C46.6,34.4,45.2,31.3,42.3,29.1z"/>
	<path class="st0" d="M254.7,55c0-1.8-0.5-3.4-1.6-4.7c-1.1-1.3-2.6-2-4.5-2c-1.9,0-3.7,0.5-5.3,1.4c-1.6,0.9-3.4,2.3-5.5,4.1
		l1.2-5.5h-12.8l-6,28.5c-2.7,3-5.2,5.3-7.5,6.7c-2.3,1.5-5,2.2-8.2,2.2c-2.2,0-3.9-0.5-4.9-1.6c-1-1-1.5-3-1.5-5.9
		c0-0.6,0.1-1.8,0.2-3.5c3.5-0.2,6.9-1.2,10-2.9c3.1-1.7,5.6-3.9,7.5-6.7c1.9-2.8,2.8-5.8,2.8-9.1c0-5.7-3.3-8.5-9.8-8.5
		c-5.6,0-10.1,1.8-13.7,5.4c-3.6,3.6-6.2,7.8-7.8,12.7c-1.6,4.9-2.4,9.4-2.4,13.5c0,0.2,0,0.4,0,0.6c-0.5,1.1-1.1,2-1.7,2.8
		c-1.2,1.4-2.6,2.1-4.3,2.1c-1.3,0-2.2-0.3-2.8-0.8c-0.6-0.5-0.8-1.3-0.8-2.5c0-1,0.1-2,0.4-2.8l10.2-47.9l-13.1,1.8l-4.3,20.4v-0.4
		c0-1.4-0.6-2.5-1.8-3.3c-1.2-0.8-3-1.2-5.4-1.2c-4.8,0-8.9,1.7-12.4,5c-3.5,3.3-6.1,7.4-7.8,12.2c-1.7,4.8-2.6,9.4-2.6,13.8
		c0,0.3,0,0.6,0,0.9c-0.5,1.1-1.1,2.1-1.8,3c-1.2,1.5-2.6,2.3-4.3,2.3c-2.4,0-3.6-1.3-3.6-3.8c0-1,0.1-2,0.4-2.8l6.4-30.2h-12.8
		l-1,4.7v-0.6c0-1.4-0.6-2.5-1.8-3.3c-1.2-0.8-3-1.2-5.4-1.2c-4.8,0-8.9,1.7-12.4,5c-3.5,3.3-6.1,7.4-7.8,12.2
		c-1.7,4.8-2.6,9.4-2.6,13.8c0,0.2,0,0.3,0,0.5c-0.7,1.4-1.4,2.5-2.1,3.3c-1.1,1.3-2.5,1.9-4.3,1.9c-1.3,0-2.2-0.3-2.8-1
		c-0.5-0.6-0.8-1.6-0.8-2.7c0-1,0.2-2.4,0.6-4.1c0.4-1.7,0.8-3.5,1.3-5.4c0.8-3,1.4-5.6,1.8-7.7c0.4-2.1,0.6-4,0.6-5.7
		c0-3.4-0.9-5.9-2.7-7.5c-1.8-1.7-4.2-2.5-7.2-2.5c-4,0-7.4,1.7-10.4,5l4.8-22.4l-13.1,1.8L44.8,92.7h12.8l6-28.5
		c0.7-2.4,1.7-4.4,2.8-5.9c1.2-1.5,2.5-2.3,4.1-2.3c2.1,0,3.2,1.5,3.2,4.5c0,1.2-0.2,2.9-0.6,4.9c-0.4,2-0.9,4.1-1.3,6.1
		c-0.1,0.4-0.3,1.4-0.7,2.8c-0.3,1.5-0.6,3-0.9,4.6c-0.3,1.6-0.4,3-0.4,4.2c0,2.8,0.8,5.2,2.5,7.1c1.7,1.9,4.3,2.9,7.9,2.9
		c3.1,0,6-1.1,8.9-3.3c1.3-1,2.5-2.4,3.6-4.3c0.6,1.7,1.4,3.1,2.4,4.2c2.2,2.3,5.1,3.5,8.4,3.5c2.9,0,5.4-0.8,7.5-2.3
		c2.1-1.5,4-3.5,5.7-5.9c0.3,2.7,1.2,4.7,2.7,6.1c1.5,1.4,3.5,2.1,6,2.1c3.3,0,6.5-1.1,9.7-3.4c1.5-1,2.8-2.5,4.1-4.4
		c0.6,1.8,1.4,3.3,2.5,4.4c2.2,2.3,5.1,3.5,8.4,3.5c2.9,0,5.4-0.8,7.6-2.3c2.2-1.5,4-3.5,5.5-5.9c0.4,2.5,1.3,4.4,2.8,5.7
		c1.5,1.3,3.5,2,5.9,2c5.7,0,10.3-2.5,13.8-7.5c0.6,1.9,1.5,3.5,2.8,4.7c2.4,2.3,5.8,3.4,10.2,3.4c7.7,0,14.4-3.4,20.1-10.3
		l-2.1,9.8h12.8l7.1-33.7c1.4-1.2,2.5-2.1,3.3-2.6c0.9-0.5,1.9-0.8,3.1-0.8c0.5,0,0.8,0.2,1,0.5c0.2,0.4,0.4,0.9,0.5,1.7
		c0.2,1.2,0.6,2.1,1,2.7c0.4,0.6,1.3,0.9,2.6,0.9c2,0,3.6-0.6,4.7-2C254.2,58.2,254.7,56.7,254.7,55z M203.4,57.8
		c2-3.7,4.1-5.6,6.3-5.6c1.5,0,2.2,1.2,2.2,3.6c0,2.4-0.6,4.7-1.8,6.9c-1.2,2.2-2.8,4-4.8,5.4c-2,1.4-4.1,2.2-6.3,2.3
		C199.9,65.8,201.4,61.6,203.4,57.8z M116.7,76.8c-0.5,2.4-1.5,4.3-3,5.7c-1.5,1.4-2.9,2.1-4.4,2.1c-1.2,0-2.3-0.4-3.1-1.2
		c-0.9-0.8-1.3-2.7-1.3-5.7c0-3,0.5-6.4,1.6-10.2c1.1-3.9,2.5-7.2,4.4-9.9c1.9-2.7,4-4.1,6.4-4.1c1.2,0,2.2,0.4,2.8,1.1
		c0.6,0.7,0.9,1.5,0.9,2.3L116.7,76.8z M163.3,76.8v0.4c-0.5,2.3-1.5,4.1-3,5.4c-1.4,1.3-2.9,2-4.3,2c-1.2,0-2.3-0.4-3.1-1.2
		c-0.9-0.8-1.3-2.7-1.3-5.7c0-3,0.5-6.4,1.6-10.2c1.1-3.9,2.5-7.2,4.4-9.9c1.9-2.7,4-4.1,6.4-4.1c1.9,0,3.1,1,3.6,3.1L163.3,76.8z"
		/>
	<path class="st0" d="M344.1,48.3l-6,28.5c-0.7,2.4-1.7,4.3-2.8,5.7c-1.2,1.4-2.6,2.1-4.3,2.1c-1.8,0-2.7-1.3-2.7-3.9
		c0-0.8,0.1-1.5,0.3-2.2l6.4-30.2h-12.8l-2.5,11.9c-0.1,0-0.2,0.1-0.3,0.1c-2.5,1-4.8,1.6-6.7,1.6c-0.5,0-0.8,0-1-0.1v-0.1
		c0-9.5-3.8-14.2-11.4-14.2c-5.6,0-10.2,1.8-13.8,5.4c-3.7,3.6-6.3,7.8-8,12.7C276.8,70.5,276,75,276,79c0,0.3,0,0.5,0,0.8
		c-0.5,1-1.2,1.9-2,2.6c-1.5,1.4-3.1,2.2-4.8,2.2c-1.3,0-2.2-0.3-2.8-0.8c-0.6-0.5-0.8-1.3-0.8-2.5c0-1,0.1-2,0.4-2.8l5.7-26.6h5.3
		l0.7-3.5h-5.3l3-14l-13.1,1.8l-2.7,12.2h-2.9l-0.7,3.5h2.9l-5.3,24.9c-0.5,2.4-0.7,4.3-0.7,5.8c0,3.5,0.9,6.2,2.6,8
		c1.7,1.8,4,2.7,6.9,2.7c3.4,0,6.8-1.1,10.2-3.4c1.6-1.1,3.1-2.6,4.4-4.5c0.6,1.8,1.6,3.3,2.9,4.4c2.5,2.2,6,3.4,10.4,3.4
		c3.6,0,6.9-1.1,10-3.3c3.1-2.2,5.6-5.3,7.5-9.3c2-4,3.2-8.7,3.6-14.1c2.6-0.4,5.1-1.1,7.4-2.1l-2.7,12.5c-0.5,2.4-0.7,4.3-0.7,5.8
		c0,3.5,0.9,6.2,2.6,8c1.7,1.8,4,2.7,6.9,2.7c4.2,0,7.8-1.7,10.8-5.1l-0.9,3.9c-3.5,1.1-6.3,2.1-8.3,3c-2.1,0.9-3.8,2.2-5.1,3.9
		c-1.3,1.7-2,3.8-2,6.4c0,2.8,1,5.1,3.1,6.9c2.1,1.8,4.5,2.7,7.3,2.7c3.6,0,6.9-1.1,9.9-3.3c3-2.2,5.1-6.1,6.3-11.8L357,48.3H344.1z
		 M304,66.6c-0.5,3.4-1.2,6.5-2.3,9.4c-1.1,2.8-2.3,5-3.7,6.7c-1.4,1.6-2.8,2.4-4.3,2.4c-1.7,0-2.9-0.5-3.5-1.5c-0.7-1-1-2.9-1-5.7
		c0-3,0.6-6.5,1.7-10.5c1.1-4,2.6-7.4,4.4-10.2c1.8-2.8,3.7-4.3,5.7-4.3c1.2,0,2,0.4,2.5,1.1c0.5,0.7,0.8,2.1,0.9,4
		c-1.8,0.8-2.8,2.4-2.8,4.8C301.6,65,302.4,66.3,304,66.6z M333.2,100c-0.5,2.4-1.3,4.2-2.2,5.3c-0.9,1.1-2,1.6-3,1.6
		c-0.9,0-1.8-0.3-2.5-0.9c-0.7-0.6-1.1-1.3-1.1-2c0-2.2,0.9-4.1,2.6-5.5c1.7-1.4,4.1-2.7,7.3-3.7L333.2,100z"/>
</g>
</svg>
