<?xml version="1.0" encoding="UTF-8"?>
<svg id="Layer_1" data-name="Layer 1" xmlns="http://www.w3.org/2000/svg" viewBox="0 0 176 124">
  <defs>
    <style>
      .cls-1 {
        fill: #fff;
      }
    </style>
  </defs>
  <path class="cls-1" d="m172.322,19.363c-2.024-7.622-7.988-13.624-15.56-15.661C143.037,0,88,0,88,0c0,0-55.037,0-68.762,3.702-7.572,2.037-13.536,8.04-15.56,15.661C0,33.177,0,62,0,62c0,0,0,28.823,3.678,42.637,2.024,7.622,7.988,13.624,15.56,15.661,13.725,3.702,68.762,3.702,68.762,3.702,0,0,55.037,0,68.762-3.702,7.572-2.037,13.536-8.04,15.56-15.661,3.678-13.815,3.678-42.637,3.678-42.637,0,0,0-28.823-3.678-42.637Zm-102.322,68.806v-52.338l46,26.17-46,26.168Z"/>
</svg>