<?xml version="1.0" encoding="utf-8"?>
<!-- Generator: Adobe Illustrator 27.7.0, SVG Export Plug-In . SVG Version: 6.00 Build 0)  -->
<svg version="1.1" id="Layer_1" xmlns="http://www.w3.org/2000/svg" xmlns:xlink="http://www.w3.org/1999/xlink" x="0px" y="0px"
	 viewBox="0 0 1469 1264.9" style="enable-background:new 0 0 1469 1264.9;" xml:space="preserve">
<style type="text/css">
	.st0{opacity:0;fill:#0D1721;}
	.st1{enable-background:new    ;}
	.st2{fill:#D9CF9C;}
	.st3{fill:none;stroke:#FA5252;stroke-width:4;stroke-linecap:round;}
	.st4{fill:none;stroke:#228BE6;stroke-width:4;stroke-linecap:round;}
	.st5{fill:none;stroke:#1971C2;stroke-width:4;stroke-linecap:round;}
	.st6{fill:none;stroke:#2F9E44;stroke-width:4;stroke-linecap:round;}
	.st7{fill:none;stroke:#D1D1D1;stroke-width:4;stroke-linecap:round;}
	.st8{fill:none;stroke:#10ADC7;stroke-width:6;stroke-linecap:round;stroke-dasharray:8,12;}
	.st9{fill:none;stroke:#10ADC7;stroke-width:6;stroke-linecap:round;}
	.st10{fill:none;stroke:#E04A4A;stroke-width:6;stroke-linecap:round;stroke-linejoin:round;stroke-dasharray:20,20;}
	.st11{fill:#E04A4A;}
	.st12{font-family:'SegoeUISymbol';}
	.st13{font-size:67.3578px;}
</style>
<rect class="st0" width="1469" height="1264.9"/>
<g transform="translate(150.9047619047633 975.4761904761909) rotate(0 47.82806396484375 72.73525995805358)">
	<g class="st1">
		<path class="st2" d="M96.8,203.7c-1.7,0-3.2-0.6-4.5-1.9c-1.2-1.2-1.8-2.7-1.8-4.5c0-1.7,0.6-3.2,1.8-4.5c1.2-1.3,2.7-1.9,4.5-1.9
			c1.8,0,3.3,0.6,4.5,1.9c1.2,1.3,1.9,2.8,1.9,4.5c0,1.7-0.6,3.2-1.9,4.5S98.6,203.7,96.8,203.7z"/>
		<path class="st2" d="M122.1,203.7c-1.7,0-3.2-0.6-4.5-1.9c-1.2-1.2-1.8-2.7-1.8-4.5c0-1.7,0.6-3.2,1.8-4.5
			c1.2-1.3,2.7-1.9,4.5-1.9c1.8,0,3.3,0.6,4.5,1.9c1.2,1.3,1.9,2.8,1.9,4.5c0,1.7-0.6,3.2-1.9,4.5S123.9,203.7,122.1,203.7z"/>
		<path class="st2" d="M147.3,203.7c-1.7,0-3.2-0.6-4.5-1.9c-1.2-1.2-1.8-2.7-1.8-4.5c0-1.7,0.6-3.2,1.8-4.5
			c1.2-1.3,2.7-1.9,4.5-1.9c1.8,0,3.3,0.6,4.5,1.9c1.2,1.3,1.9,2.8,1.9,4.5c0,1.7-0.6,3.2-1.9,4.5S149.1,203.7,147.3,203.7z"/>
	</g>
</g>
<g transform="translate(10 10) rotate(0 191.255859375 27.98214285714289)">
	<g class="st1">
		<path class="st2" d="M98.1,142.5v-34h4.2v30.2h15.4v3.8H98.1z"/>
		<path class="st2" d="M123.1,142.5l8.9-34h5.6l8.8,34h-4.2l-2.2-9h-10.3l-2.2,9H123.1z M130.4,129.9h8.6l-2.6-10.5
			c-0.5-2-0.9-3.7-1.2-5s-0.5-2.2-0.5-2.6c-0.1,0.4-0.2,1.3-0.5,2.6s-0.7,3-1.2,4.9L130.4,129.9z"/>
		<path class="st2" d="M152.3,142.5v-34h5.5l3.5,11c0.3,1,0.7,2,0.9,3s0.5,1.7,0.6,2.3c0.2-0.5,0.4-1.3,0.6-2.3c0.2-1,0.5-2,0.8-3
			l3.4-11h5.5v34h-4.1v-12.4c0-1.4,0-2.9,0.1-4.7s0.2-3.5,0.4-5.3c0.2-1.8,0.3-3.6,0.5-5.2c0.2-1.7,0.3-3.1,0.4-4.4l-5.5,17h-4.4
			l-5.5-17c0.2,1.2,0.3,2.6,0.5,4.2c0.2,1.6,0.3,3.3,0.4,5.1c0.1,1.8,0.2,3.6,0.3,5.3c0.1,1.8,0.1,3.4,0.1,4.9v12.4H152.3z"/>
		<path class="st2" d="M181,142.5v-34h11c2.1,0,3.9,0.4,5.5,1.2c1.6,0.8,2.8,2,3.6,3.5c0.9,1.5,1.3,3.3,1.3,5.3c0,2-0.4,3.8-1.3,5.3
			c-0.9,1.5-2.1,2.7-3.6,3.5c-1.6,0.8-3.4,1.2-5.5,1.2h-6.8v14H181z M185.2,124.7h6.8c1.8,0,3.3-0.6,4.4-1.7s1.7-2.7,1.7-4.5
			c0-1.9-0.6-3.5-1.7-4.6c-1.1-1.1-2.6-1.7-4.4-1.7h-6.8V124.7z"/>
		<path class="st2" d="M234.5,142.5l9.8-17.3l-9.3-16.8h4.9l5.3,10.1c0.3,0.5,0.6,1.1,0.9,1.7c0.3,0.6,0.5,1.1,0.7,1.4
			c0.2-0.3,0.4-0.8,0.7-1.4c0.3-0.6,0.6-1.2,0.9-1.7l5.4-10.1h4.6L249,125l9.8,17.5H254l-5.8-10.8c-0.3-0.5-0.6-1.1-0.9-1.7
			c-0.3-0.6-0.5-1.1-0.7-1.5c-0.2,0.4-0.4,0.9-0.7,1.4c-0.3,0.6-0.6,1.2-0.9,1.7l-5.9,10.9H234.5z"/>
		<path class="st2" d="M264.6,123.4v-3.7h20.1v3.7H264.6z M264.6,134.6v-3.7h20.1v3.7H264.6z"/>
		<path class="st2" d="M302.5,143c-2.8,0-5-0.7-6.8-2.1c-1.8-1.4-2.8-3.4-3.1-5.8h4.2c0.2,1.3,0.7,2.4,1.7,3.1
			c1,0.7,2.3,1.1,4.1,1.1c2,0,3.4-0.5,4.4-1.6c1-1.1,1.5-2.5,1.5-4.5v-3.3c0-1.9-0.5-3.4-1.5-4.5c-1-1.1-2.4-1.6-4.4-1.6
			c-1.2,0-2.3,0.3-3.2,1c-0.9,0.6-1.6,1.5-2,2.5h-4.2l0.2-18.8h17.9v3.8h-13.9l-0.1,11.3h1.3l-1.3,1.2c0-1.5,0.6-2.6,1.7-3.5
			c1.2-0.8,2.7-1.3,4.7-1.3c2.8,0,4.9,0.8,6.5,2.5s2.3,4.1,2.3,7.2v3.3c0,3-0.9,5.4-2.7,7.2C308.2,142.1,305.7,143,302.5,143z"/>
		<path class="st2" d="M320.8,142.5v-3.8h9.2V112l-9.2,6.9v-4.7l7.7-5.7h5.7v30.2h7.6v3.8H320.8z"/>
		<path class="st2" d="M384.5,142.5v-12.7l-10.3-21.3h4.3l6.8,14c0.4,0.8,0.7,1.4,0.9,2c0.2,0.5,0.4,0.9,0.4,1.2
			c0.1-0.2,0.2-0.6,0.4-1.2c0.2-0.5,0.5-1.2,0.9-2l6.6-14h4.3l-10.3,21.3v12.7H384.5z"/>
		<path class="st2" d="M404.5,123.4v-3.7h20.1v3.7H404.5z M404.5,134.6v-3.7h20.1v3.7H404.5z"/>
		<path class="st2" d="M442,143c-2.1,0-3.8-0.4-5.4-1.2s-2.7-2-3.6-3.4c-0.8-1.5-1.3-3.2-1.3-5.1h4.2c0,1.9,0.5,3.4,1.6,4.5
			c1.1,1.1,2.6,1.6,4.5,1.6c1.9,0,3.4-0.6,4.5-1.7c1.1-1.1,1.6-2.6,1.6-4.4v-2.4c0-1.9-0.5-3.4-1.6-4.5c-1.1-1.1-2.5-1.6-4.5-1.6
			h-3.5v-4.2l8.4-8.2h-13.8v-3.8h18v4.2l-9.1,8.8V121c3.1,0,5.6,0.9,7.4,2.7c1.8,1.8,2.8,4.2,2.8,7.1v2.4c0,2-0.4,3.7-1.3,5.1
			c-0.9,1.5-2.1,2.6-3.6,3.4C445.9,142.6,444.1,143,442,143z"/>
		<path class="st2" d="M470.5,143c-2.1,0-3.9-0.4-5.4-1.2c-1.5-0.8-2.7-2-3.6-3.5c-0.8-1.5-1.3-3.3-1.3-5.3V118
			c0-2.1,0.4-3.8,1.3-5.3s2-2.7,3.6-3.5c1.5-0.8,3.3-1.2,5.4-1.2c2.1,0,3.9,0.4,5.5,1.2c1.5,0.8,2.7,2,3.5,3.5
			c0.8,1.5,1.3,3.3,1.3,5.3v14.9c0,2-0.4,3.8-1.3,5.3c-0.8,1.5-2,2.7-3.6,3.5S472.6,143,470.5,143z M470.5,139.4
			c1.9,0,3.4-0.6,4.5-1.8c1.1-1.2,1.7-2.7,1.7-4.6V118c0-1.9-0.6-3.4-1.7-4.6c-1.1-1.2-2.6-1.8-4.5-1.8c-1.9,0-3.4,0.6-4.5,1.8
			c-1.1,1.2-1.7,2.7-1.7,4.6v14.9c0,1.9,0.6,3.4,1.7,4.6C467.1,138.8,468.6,139.4,470.5,139.4z M470.5,128.2c-0.8,0-1.5-0.3-2-0.8
			s-0.8-1.2-0.8-2.1c0-0.8,0.3-1.5,0.8-2c0.5-0.5,1.2-0.8,2-0.8c0.8,0,1.5,0.3,2,0.8c0.5,0.5,0.8,1.2,0.8,2c0,0.9-0.3,1.6-0.8,2.1
			C472,128,471.4,128.2,470.5,128.2z"/>
	</g>
</g>
<g transform="translate(48.82142857142935 121.607142857143) rotate(0 65.625 65.625)">
	<path class="st3" d="M144.6,96.9c9.8-0.9,22.7,2.9,31.6,8c8.9,5.1,16.5,14.2,22,22.7c5.5,8.5,10,18.1,11,28c1,10-0.7,22.3-4.7,31.7
		c-4.1,9.4-11.9,18.5-19.8,24.9c-7.8,6.4-17.5,11.1-27.3,13.5c-9.7,2.4-21.4,3.3-31.1,0.8c-9.7-2.5-19.5-9-27.1-15.9
		c-7.6-6.9-15-15.8-18.5-25.4c-3.5-9.6-3.9-22.2-2.3-32.3c1.5-10.1,5.5-19.9,11.6-28.3c6.1-8.3,14.4-17.1,24.9-21.6
		c10.5-4.5,30.4-5.1,38-5.5c7.6-0.4,8.1,1.8,7.8,3 M118.1,100.5c8.5-4.7,20.9-5.1,31-3.7c10.2,1.3,21.1,5.8,29.9,11.7
		c8.9,5.9,18.5,14.8,23.3,23.7c4.8,8.8,5.4,19.3,5.5,29.3c0,10-1,21.4-5.3,30.6c-4.2,9.2-11.6,18.2-20.2,24.4
		c-8.6,6.2-20.8,11.4-31.2,12.6c-10.4,1.2-21.9-1.7-31.3-5.5c-9.4-3.8-18.2-10-25.1-17.3c-6.9-7.3-13.7-16.9-16.1-26.4
		c-2.4-9.5-0.6-20.5,1.9-30.6c2.5-10.1,6.8-22.2,13-30c6.2-7.8,20.2-14.4,24.4-17c4.3-2.6,0.4,0.4,1.1,1.5"/>
</g>
<g>
	<g transform="translate(111.32142857142935 185.357142857143) rotate(0 28.75 -12.5)">
		<path class="st3" d="M77.9,97.4c9.5-4.2,48.3-22,57.9-26.1 M76.4,96.6c9.2-4.1,49-19.8,58.6-24"/>
	</g>
</g>
<g transform="translate(123.82142857142935 281.6071428571429) rotate(0 65.625 65.625)">
	<path class="st4" d="M139.6,98c9.5-1.6,22.2,0.1,31.5,4.2c9.3,4.1,18.5,12.1,24.5,20.1c6,8,9.8,18.3,11.5,28.2
		c1.7,9.9,1.8,21.1-1.1,30.9c-2.8,9.9-8.9,21.1-16,28.5c-7.1,7.3-16.7,12.5-26.6,15.6c-9.9,3-22.5,4.5-32.6,2.6
		c-10.1-1.9-20-7.7-27.9-14c-7.9-6.3-15.5-14.6-19.6-24c-4-9.4-5.4-22-4.7-32.3c0.7-10.3,3.7-20.8,9-29.4c5.3-8.6,13.4-16.9,22.8-22
		c9.4-5.1,27.2-7.2,33.4-8.6c6.2-1.3,3.7-0.4,3.9,0.5 M118.2,102.2c9-4.2,23.2-4.8,33.2-3.9c10,0.9,18.7,4.1,27.1,9.5
		c8.3,5.4,17.8,14.1,23,23.1s8.5,20.5,8.4,30.9c-0.1,10.4-4.1,22.8-9,31.6s-12.3,16.1-20.4,21.7c-8.1,5.6-18.1,10.2-28.1,11.8
		c-10.1,1.6-22.9,1.1-32.3-2c-9.3-3.1-17.1-8.8-23.8-16.5c-6.7-7.7-13.2-19.6-16.2-29.5c-3-9.9-3.9-20.5-1.7-30.1
		c2.2-9.7,7.8-20.2,14.8-27.8c7-7.6,22.7-15.2,27-18c4.3-2.8-1.1,0.4-1.1,1"/>
</g>
<g>
	<g transform="translate(186.32142857142935 345.3571428571429) rotate(0 -17.5 28.75)">
		<path class="st5" d="M77.7,98c-6,9.7-29.7,46.8-35.3,56.4 M76.1,97.4c-6.2,9.9-29.6,49.1-35,58.4"/>
	</g>
</g>
<g transform="translate(210.07142857142935 124.107142857143) rotate(0 65.625 65.625)">
	<path class="st6" d="M170.9,102.8c8.9,3.1,17.2,11.1,23.4,19c6.2,7.9,11.7,18.1,13.7,28.3c2,10.2,1.3,23.1-1.7,33
		c-2.9,9.9-8.6,19-16,26.2c-7.4,7.2-18.4,14.1-28.2,17c-9.8,3-20.8,2.7-30.7,0.8c-9.9-1.9-21-5.8-28.9-12.2
		c-7.9-6.4-14.3-16.8-18.4-26.2c-4.1-9.4-6.7-20.3-6-30.3c0.7-10,4.8-21.3,10-29.8c5.2-8.5,12.8-16.1,21.3-21.4
		c8.5-5.3,18.6-9.8,29.6-10.3s30.2,5.6,36.6,7.4c6.5,1.8,2.9,2.6,2.2,3.6 M152.1,97.6c9.6,0.3,22.3,5.9,30.8,12
		c8.5,6.1,16.2,15.3,20.4,24.7c4.2,9.4,5.2,21.8,4.6,31.7c-0.7,10-3.6,19.6-8.4,28.1c-4.8,8.5-12,17.3-20.5,23
		c-8.5,5.7-20.8,10.2-30.7,11.5c-9.9,1.3-19.5,0.2-28.7-3.9c-9.2-4.1-19.5-12.7-26.4-20.6c-6.9-7.9-12.7-17.3-14.9-27
		c-2.2-9.7-1.5-21.4,1.6-31.1c3.1-9.7,9.9-19.6,16.9-27c7-7.4,15.6-13.5,24.8-17.3c9.3-3.8,25.6-4.7,30.8-5.2
		c5.2-0.5,0.6,1.1,0.4,2.3"/>
</g>
<g>
	<g transform="translate(272.57142857142935 187.857142857143) rotate(0 -13.125 -25.625)">
		<path class="st6" d="M78.8,97.6C74.4,89.2,55.2,55,50.7,46.2 M77.9,96.9c-4-8.8-20.4-44.1-25-52.7"/>
	</g>
</g>
<g transform="translate(19.714285714287143 90.7142857142859) rotate(0 177.5 177.5)">
	<path class="st7" d="M109.8,97c112.6,1.5,222.8,0.8,291,0 M109.8,97c86.9-0.2,172.8-1.1,291,0 M400.8,97c23.3,0,31.9,10.1,32,32
		 M400.8,97c23.1,1.4,30.5,11,32,32 M432.8,129c0.9,86.2,0.3,169.7,0,291 M432.8,129c-2.2,104-2,208.9,0,291 M432.8,420
		c1.7,22.6-12.3,31.8-32,32 M432.8,420c0.9,21.1-9.4,32.6-32,32 M400.8,452c-65.3-1.9-129.7-2.9-291,0 M400.8,452
		c-98.9,1.8-198.3,2.5-291,0 M109.8,452c-21.9,1.4-30.6-8.9-32-32 M109.8,452c-22.1,1.7-33.6-12.6-32-32 M77.8,420
		c-0.2-80.5,0.1-158.8,0-291 M77.8,420c0.2-112.4-0.6-225.5,0-291 M77.8,129c1.6-21.8,12.4-32.8,32-32 M77.8,129
		c2.2-23.6,10-30.9,32-32"/>
</g>
<g transform="translate(10.00000000000091 514.8571428571428) rotate(0 196.13671875 28.69642857142867)">
	<g class="st1">
		<path class="st2" d="M92.8,158.2v-34.9h4.3v31h15.8v3.9H92.8z"/>
		<path class="st2" d="M118.3,158.2l9.1-34.9h5.8l9,34.9h-4.4l-2.3-9.3H125l-2.3,9.3H118.3z M125.9,145.3h8.8l-2.7-10.8
			c-0.5-2-0.9-3.7-1.2-5.1c-0.3-1.4-0.5-2.3-0.5-2.7c-0.1,0.4-0.2,1.3-0.5,2.7c-0.3,1.4-0.7,3.1-1.2,5.1L125.9,145.3z"/>
		<path class="st2" d="M148.3,158.2v-34.9h5.6l3.6,11.3c0.4,1,0.7,2,1,3c0.3,1,0.5,1.8,0.6,2.3c0.2-0.5,0.4-1.3,0.6-2.3
			c0.3-1,0.5-2,0.9-3.1l3.4-11.2h5.6v34.9h-4.2v-12.7c0-1.4,0-3,0.1-4.8c0.1-1.8,0.2-3.6,0.4-5.5c0.2-1.9,0.3-3.7,0.5-5.4
			c0.2-1.7,0.3-3.2,0.5-4.5l-5.6,17.5h-4.5l-5.7-17.5c0.2,1.2,0.3,2.7,0.5,4.3c0.2,1.6,0.3,3.4,0.4,5.2c0.1,1.8,0.2,3.7,0.3,5.5
			s0.1,3.5,0.1,5.1v12.7H148.3z"/>
		<path class="st2" d="M177.7,158.2v-34.9H189c2.2,0,4,0.4,5.6,1.3c1.6,0.8,2.8,2,3.7,3.6c0.9,1.5,1.3,3.3,1.3,5.5
			c0,2.1-0.4,3.9-1.3,5.4c-0.9,1.5-2.1,2.7-3.7,3.6c-1.6,0.8-3.5,1.3-5.6,1.3h-6.9v14.3H177.7z M182.1,140h6.9
			c1.9,0,3.4-0.6,4.5-1.7c1.1-1.2,1.7-2.7,1.7-4.7c0-2-0.6-3.5-1.7-4.7c-1.1-1.1-2.6-1.7-4.5-1.7h-6.9V140z"/>
		<path class="st2" d="M232.7,158.2l10-17.7l-9.5-17.2h5l5.4,10.3c0.3,0.5,0.6,1.1,0.9,1.7c0.3,0.6,0.5,1.1,0.7,1.5
			c0.2-0.4,0.4-0.8,0.7-1.5c0.3-0.6,0.6-1.2,0.9-1.7l5.5-10.3h4.7l-9.5,16.9l10,18h-4.9l-6-11.1c-0.3-0.5-0.6-1.1-0.9-1.7
			c-0.3-0.6-0.5-1.1-0.7-1.5c-0.2,0.4-0.4,0.9-0.7,1.5c-0.3,0.6-0.6,1.2-0.9,1.7l-6,11.1H232.7z"/>
		<path class="st2" d="M263.5,138.6v-3.8h20.6v3.8H263.5z M263.5,150.1v-3.8h20.6v3.8H263.5z"/>
		<path class="st2" d="M302.4,158.7c-2.8,0-5.2-0.7-7-2.2c-1.8-1.5-2.9-3.4-3.2-5.9h4.3c0.2,1.4,0.7,2.4,1.8,3.2
			c1,0.7,2.4,1.1,4.2,1.1c2,0,3.5-0.5,4.5-1.6c1-1.1,1.5-2.6,1.5-4.6v-3.4c0-2-0.5-3.5-1.5-4.6c-1-1.1-2.5-1.6-4.5-1.6
			c-1.2,0-2.3,0.3-3.3,1c-0.9,0.7-1.6,1.5-2,2.6h-4.3l0.2-19.3h18.4v3.9h-14.2l-0.1,11.6h1.3l-1.3,1.2c0-1.5,0.6-2.7,1.8-3.5
			c1.2-0.9,2.8-1.3,4.8-1.3c2.8,0,5,0.8,6.6,2.6s2.4,4.2,2.4,7.4v3.4c0,3.1-0.9,5.5-2.7,7.3S305.7,158.7,302.4,158.7z"/>
		<path class="st2" d="M321.2,158.2v-4.4l10.7-11.3c1.8-1.9,3.1-3.7,4-5.2c0.8-1.5,1.2-3,1.2-4.4c0-1.9-0.5-3.5-1.6-4.6
			c-1.1-1.1-2.5-1.7-4.4-1.7c-2,0-3.6,0.6-4.8,1.7c-1.2,1.1-1.7,2.7-1.7,4.7h-4.3c0.1-2.1,0.6-3.9,1.5-5.5c0.9-1.5,2.2-2.7,3.8-3.6
			c1.6-0.8,3.5-1.2,5.6-1.2c2.1,0,3.9,0.4,5.5,1.2c1.5,0.8,2.7,2,3.6,3.5c0.8,1.5,1.2,3.3,1.2,5.4c0,2-0.5,3.9-1.6,5.9
			c-1.1,1.9-2.8,4.2-5.2,6.6l-8.6,8.9H342v3.9H321.2z"/>
		<path class="st2" d="M386.4,158.2v-13.1l-10.5-21.9h4.4l6.9,14.3c0.4,0.8,0.7,1.5,0.9,2c0.2,0.6,0.4,1,0.4,1.2
			c0.1-0.3,0.2-0.7,0.5-1.2c0.2-0.6,0.5-1.2,0.9-2l6.8-14.3h4.4l-10.5,21.9v13.1H386.4z"/>
		<path class="st2" d="M407,138.6v-3.8h20.6v3.8H407z M407,150.1v-3.8h20.6v3.8H407z"/>
		<path class="st2" d="M445.4,158.7c-2.1,0-3.9-0.4-5.5-1.3c-1.6-0.8-2.8-2-3.7-3.5c-0.9-1.5-1.3-3.3-1.3-5.3h4.3
			c0,1.9,0.6,3.5,1.6,4.6c1.1,1.1,2.6,1.7,4.6,1.7c2,0,3.5-0.6,4.6-1.7c1.1-1.1,1.6-2.6,1.6-4.5v-2.5c0-2-0.5-3.5-1.6-4.6
			c-1.1-1.1-2.6-1.6-4.6-1.6h-3.6v-4.3l8.7-8.4h-14.2v-3.9h18.5v4.3l-9.3,9v-0.5c3.2,0,5.7,0.9,7.6,2.7c1.9,1.8,2.8,4.3,2.8,7.3v2.5
			c0,2-0.4,3.8-1.3,5.3c-0.9,1.5-2.1,2.7-3.7,3.5C449.4,158.2,447.5,158.7,445.4,158.7z"/>
		<path class="st2" d="M474.7,158.7c-2.1,0-4-0.4-5.6-1.3s-2.8-2-3.7-3.6s-1.3-3.4-1.3-5.4v-15.3c0-2.1,0.4-3.9,1.3-5.5
			s2.1-2.7,3.7-3.6c1.6-0.8,3.4-1.3,5.6-1.3c2.2,0,4,0.4,5.6,1.3c1.6,0.8,2.8,2,3.6,3.6c0.9,1.5,1.3,3.3,1.3,5.5v15.3
			c0,2.1-0.4,3.9-1.3,5.4c-0.9,1.5-2.1,2.7-3.7,3.6C478.6,158.2,476.8,158.7,474.7,158.7z M474.7,155c1.9,0,3.5-0.6,4.6-1.8
			c1.2-1.2,1.7-2.8,1.7-4.8v-15.3c0-1.9-0.6-3.5-1.7-4.8c-1.2-1.2-2.7-1.8-4.6-1.8s-3.5,0.6-4.6,1.8c-1.2,1.2-1.7,2.8-1.7,4.8v15.3
			c0,1.9,0.6,3.5,1.7,4.8C471.2,154.4,472.7,155,474.7,155z M474.7,143.5c-0.9,0-1.6-0.3-2.1-0.8c-0.5-0.5-0.8-1.3-0.8-2.2
			c0-0.9,0.3-1.6,0.8-2.1c0.5-0.5,1.2-0.8,2.1-0.8s1.6,0.3,2.1,0.8c0.5,0.5,0.8,1.2,0.8,2.1c0,0.9-0.3,1.6-0.8,2.2
			C476.2,143.3,475.5,143.5,474.7,143.5z"/>
	</g>
</g>
<g transform="translate(48.82142857142935 624.4642857142859) rotate(0 65.625 65.625)">
	<path class="st3" d="M113.3,118.3c8-5.4,20.3-7.2,30.5-6.9c10.2,0.3,22,3.5,31,8.5c8.9,5,16.9,13.1,22.7,21.5
		c5.7,8.4,10.7,18.5,11.7,28.7c1.1,10.1-1.6,22.6-5.4,32c-3.9,9.4-10.2,18.3-17.7,24.7c-7.5,6.4-17.2,11.3-27.2,13.7
		c-10,2.4-22.7,3.2-32.7,0.9c-10.1-2.3-20.3-7.8-27.7-14.7c-7.4-6.9-13.4-17.1-16.8-26.7c-3.4-9.6-4.6-20.9-3.3-31.1
		c1.2-10.2,4.2-21.2,10.8-29.9c6.5-8.7,22.9-18.4,28.5-22.1s4.6-1.7,5.1-0.6 M147.9,111.7c9.8-0.2,22.2,4.1,30.8,9.6
		c8.7,5.5,16.1,14.6,21.3,23.3c5.2,8.7,9.2,18.6,9.8,28.8c0.6,10.1-1.7,22.7-6,32.1c-4.3,9.4-11.3,18-19.7,24.3
		c-8.4,6.3-20.3,12-30.6,13.6c-10.3,1.5-21.6-1.2-31.2-4.4c-9.7-3.2-19.6-7.6-26.7-14.8c-7-7.2-12.9-18.7-15.6-28.4
		c-2.7-9.7-2.9-19.8-0.7-29.8c2.2-10,7.5-22.1,13.8-30.3c6.3-8.2,15.3-14.8,24.3-18.7c9-3.9,24.6-4.2,29.7-4.6
		c5.2-0.5,1.2,0.6,1.2,1.8"/>
</g>
<g>
	<g transform="translate(111.32142857142935 688.2142857142859) rotate(0 28.75 -12.5)">
		<path class="st3" d="M76.7,112.6c9.4-4.1,49.2-21.6,58.8-25.9 M78.3,111.9c9.2-3.9,46.6-19.8,56.3-23.8"/>
	</g>
</g>
<g transform="translate(123.82142857142935 784.4642857142859) rotate(0 65.625 65.625)">
	<path class="st4" d="M139.5,113.1c9.6-1.8,21.2-0.5,30.4,3.5c9.2,4,18.5,12.6,24.7,20.6s10.6,17.2,12.5,27.2
		c1.9,10,1.6,23.1-1.3,32.9c-2.9,9.8-8.9,18.5-15.9,25.6c-7,7.2-16.8,14.1-26.3,17.3c-9.5,3.3-20.9,3.9-30.7,2.3
		c-9.9-1.7-20.2-5.9-28.5-12.2c-8.2-6.3-16.7-16.3-21.1-25.6c-4.4-9.2-5.8-19.7-5.2-29.9c0.6-10.2,3.9-22.5,9-31.4
		c5-8.9,11.7-16.6,21.2-21.9s29.1-8.5,35.7-9.7c6.6-1.2,3.9,1.2,3.7,2.3 M158.4,114.4c9.7,1.1,19.1,7,26.9,13.6
		c7.8,6.6,16.1,16.6,20.1,26.1c4.1,9.5,5.4,20.7,4.4,30.9c-1.1,10.2-5,22.2-10.9,30.4s-15.8,13.8-24.7,18.4s-18.9,8.8-29,9.2
		s-22.7-2.3-32-6.9S95.2,224,89.6,215.7c-5.6-8.4-8.8-19.8-10.1-29.7c-1.3-9.9-1.4-20.1,2-29.5c3.4-9.4,10.6-20,18.4-27
		c7.8-7,18.4-12.3,28.3-14.8c9.9-2.5,26.2,0,31-0.1c4.8,0-2.1-0.8-2.3,0"/>
</g>
<g>
	<g transform="translate(186.32142857142935 848.2142857142859) rotate(0 -17.5 28.75)">
		<path class="st5" d="M77.6,111.7c-5.8,9.8-29.5,49-35.1,58.6 M76.1,110.5c-5.9,9.4-29.2,48.1-34.6,58.2"/>
	</g>
</g>
<g transform="translate(210.07142857142935 626.9642857142859) rotate(0 65.625 65.625)">
	<path class="st6" d="M122.9,114.3c8.7-4,21.1-3.8,31.2-2c10.1,1.8,21.4,6.4,29.6,12.8c8.1,6.3,15.1,15.8,19.2,25.2
		c4.1,9.4,5.7,20.7,5.2,30.9s-2.8,21.7-7.8,30.4c-5,8.7-13.3,16.8-22,21.9c-8.7,5.2-20,8.4-30.1,9c-10.1,0.6-21.3-1.5-30.7-5.6
		c-9.4-4.1-19.6-11-26-18.8c-6.4-7.8-10.7-17.6-12.5-27.7c-1.8-10.1-1.1-23.1,1.8-33c2.9-9.9,7.6-19.1,15.6-26.3
		c7.9-7.2,25.7-14.2,32-17c6.3-2.8,5.4-0.7,5.6,0.3 M145,111.3c9.6-0.9,20,2.7,28.8,7.7c8.8,5,18.1,13.8,24.1,22.1
		c6,8.3,10.6,17.9,11.8,27.8c1.2,9.9-0.9,21.9-4.7,31.8c-3.8,9.9-10.4,21-18,27.6c-7.6,6.6-18,9.8-27.7,12
		c-9.8,2.2-20.8,3.7-30.8,1.3c-10.1-2.4-21.6-8.7-29.6-15.7c-8-7-14.9-16.5-18.4-26.1c-3.6-9.6-4.8-21.5-3-31.4
		c1.8-9.9,7.8-19.7,13.7-27.9c5.9-8.2,13-16.6,21.6-21.2c8.6-4.6,24.4-5.4,29.8-6.2c5.3-0.8,1.7,0.3,2.2,1.3"/>
</g>
<g>
	<g transform="translate(272.57142857142935 690.7142857142859) rotate(0 -13.125 -25.625)">
		<path class="st6" d="M77.5,112.2c-4.2-8.7-21.7-43.1-26.2-51.8 M79.5,111.2c-4.3-8.6-24.9-41.2-29.3-49.5"/>
	</g>
</g>
<g transform="translate(19.714285714287143 593.5714285714288) rotate(0 177.5 177.5)">
	<path class="st7" d="M109.8,112c67-0.1,135.6-0.9,291,0 M109.8,112c115.1-0.1,229.4-0.1,291,0 M400.8,112c22.8,1.9,30.3,10.3,32,32
		 M400.8,112c19.2-0.8,30.6,11.7,32,32 M432.8,144c0.5,70.9,0.2,140.6,0,291 M432.8,144c1.8,75.4,0.7,149.2,0,291 M432.8,435
		c1.3,22.2-12,31.6-32,32 M432.8,435c-1,22.7-8.6,31.1-32,32 M400.8,467c-108.9-1.6-218.1-1.2-291,0 M400.8,467
		c-65,0.6-130.2,1.5-291,0 M109.8,467c-19.6,1.1-31.9-10.1-32-32 M109.8,467c-22.2,1.9-34.2-12.6-32-32 M77.8,435
		c0.9-81.8,3.1-165.9,0-291 M77.8,435c2-102,2.2-205.6,0-291 M77.8,144c1.2-21.5,11.3-33.6,32-32 M77.8,144c-0.4-22.3,12-31.2,32-32
		"/>
</g>
<g>
	<g transform="translate(460.7857142857174 248.5119047619047) rotate(0 420.7142857142853 0)">
		<path class="st8" d="M77.4,97.1c140.2-0.2,702.5-0.9,842.6-0.8"/>
	</g>
	<g transform="translate(460.7857142857174 248.5119047619047) rotate(0 420.7142857142853 0)">
		<path class="st9" d="M896.5,104.8c8.9-1.9,16.4-8.3,23.5-8.6"/>
	</g>
	<g transform="translate(460.7857142857174 248.5119047619047) rotate(0 420.7142857142853 0)">
		<path class="st9" d="M896.5,87.7c9,4.5,16.5,4.5,23.5,8.5"/>
	</g>
</g>
<g>
	<g transform="translate(460.7857142857174 758.5119047619047) rotate(0 420.7142857142853 0)">
		<path class="st8" d="M77.2,110.9c140.2,0.2,702.8,0.8,843.1,1"/>
	</g>
	<g transform="translate(460.7857142857174 758.5119047619047) rotate(0 420.7142857142853 0)">
		<path class="st9" d="M896.9,120.4c7.6-1.4,18.6-6.4,23.5-8.5"/>
	</g>
	<g transform="translate(460.7857142857174 758.5119047619047) rotate(0 420.7142857142853 0)">
		<path class="st9" d="M896.9,103.3c7.4,5.4,18.5,7.2,23.5,8.6"/>
	</g>
</g>
<g>
	<g>
		<path class="st10" d="M617,385.9l15.3,8c102.7,53.5,182,142.9,223,251.2l56.9,170.8"/>
		<g>
			<polygon class="st11" points="882.7,804.7 885.5,799.5 911.5,813.6 923.8,786.7 929.2,789.2 914.3,822 			"/>
		</g>
	</g>
</g>
<text transform="matrix(1 0 0 1 843.7669 526.7142)" class="st11 st12 st13">❌</text>
</svg>
